PathFileType	4	(X/Y/Z)	C:/Users/opensim2020/Desktop/walking_exp_matlab/subject06_walking12_straigt_03.trc																																																																																																																																														
DataRate	CameraRate	NumFrames	NumMarkers	Units	OrigDataRate	OrigDataStartFrame	OrigNumFrames																																																																																																																																										
100	100	5	48	mm	100	2233	184																																																																																																																																										
Frame#	Time	LFHD			RFHD			LBHD			RBHD			C7			T10			CLAV			STRN			RBAK			LSHO			LUPA			LELB			LFRM			LWRA			LWRB			LFIN			RSHO			RUPA			RELB			RFRM			RWRA			RWRB			RFIN			LASI			RASI			LPSI			RPSI			LTHI			LKNE			LTIB			LANK			LHEE			LTOE			RTHI			RKNE			RTIB			RANK			RHEE			RTOE			*39			*40			*41			*42			*43			*44			*45			*46			*47		
		X1	Y1	Z1	X2	Y2	Z2	X3	Y3	Z3	X4	Y4	Z4	X5	Y5	Z5	X6	Y6	Z6	X7	Y7	Z7	X8	Y8	Z8	X9	Y9	Z9	X10	Y10	Z10	X11	Y11	Z11	X12	Y12	Z12	X13	Y13	Z13	X14	Y14	Z14	X15	Y15	Z15	X16	Y16	Z16	X17	Y17	Z17	X18	Y18	Z18	X19	Y19	Z19	X20	Y20	Z20	X21	Y21	Z21	X22	Y22	Z22	X23	Y23	Z23	X24	Y24	Z24	X25	Y25	Z25	X26	Y26	Z26	X27	Y27	Z27	X28	Y28	Z28	X29	Y29	Z29	X30	Y30	Z30	X31	Y31	Z31	X32	Y32	Z32	X33	Y33	Z33	X34	Y34	Z34	X35	Y35	Z35	X36	Y36	Z36	X37	Y37	Z37	X38	Y38	Z38	X39	Y39	Z39	X40	Y40	Z40	X41	Y41	Z41	X42	Y42	Z42	X43	Y43	Z43	X44	Y44	Z44	X45	Y45	Z45	X46	Y46	Z46	X47	Y47	Z47	X48	Y48	Z48
																																																																																																																																																	
162	1.61	-1057.07837	1665.31335	-803.43274	-926.72906	1651.66699	-790.08154	-1072.44128	1618.62585	-668.64575	-943.82684	1610.04065	-656.91895	-1011.6601	1453.79456	-656.0083	-1004.03046	1123.2876	-628.29163	-1012.41962	1378.42188	-767.87177	-1024.3219	1204.59924	-812.18976	-932.15985	1278.78137	-588.4339	-1173.16199	1410.66675	-709.07361	-1244.74878	1208.35449	-723.25067	-1258.58215	1096.68774	-736.53375	-1281.23083	961.97168	-803.62689	-1239.98718	877.20026	-901.43933	-1275.45374	850.51715	-846.33209	-1278.04565	791.38354	-914.35126	-849.74615	1406.81311	-724.29669	-764.60071	1206.81873	-687.70654	-753.77216	1084.45251	-698.53101	-739.82257	965.2514	-717.9339	-777.75769	828.33423	-778.63367	-734.0097	827.49042	-727.88068	-735.63818	752.90961	-767.85065	-1121.37268	961.68396	-801.21399	-901.98724	975.96143	-816.45746	-1082.57715	985.90033	-643.88086	-915.08441	997.76691	-661.62903	-1174.54382	641.80231	-758.12848	-1160.72839	480.39749	-781.46094	-1147.90747	323.92184	-592.33606	-1109.11426	210.13158	-464.2623	-1058.91211	227.73839	-431.98636	-1117.2345	77.35396	-525.36823	-842.39661	641.69171	-789.36304	-869.91174	517.9007	-804.31451	-876.97162	251.42683	-769.75238	-929.33002	67.07885	-762.12134	-976.38538	43.73158	-724.64471	-923.32458	34.74789	-914.9574	-1007.29321	1708.31091	-700.26349	NaN	NaN	NaN	NaN	NaN	NaN	NaN	NaN	NaN	NaN	NaN	NaN	NaN	NaN	NaN	NaN	NaN	NaN	NaN	NaN	NaN	NaN	NaN	NaN
163	1.62	-1056.45361	1665.95715	-813.20758	-926.10504	1652.31299	-799.67645	-1071.94531	1619.22083	-678.36591	-943.36731	1610.62219	-666.54022	-1010.96973	1454.54541	-665.7793	-1002.66327	1124.32483	-636.9469	-1011.86884	1378.98694	-777.30237	-1023.56689	1205.16064	-821.23834	-930.328	1280.21887	-597.79089	-1172.48145	1411.04028	-717.9516	-1243.42847	1208.3197	-730.35907	-1256.55676	1096.41516	-741.84674	-1279.23047	959.67987	-805.16321	-1238.55701	871.66479	-900.14093	-1273.59778	846.73193	-843.8327	-1276.8103	785.58081	-909.95905	-849.05774	1407.6189	-734.58307	-763.37811	1207.5127	-699.96265	-752.22211	1085.31201	-712.38892	-738.25867	966.50098	-733.92456	-776.09686	830.81842	-797.59827	-732.49121	828.98914	-746.8418	-734.4715	755.2514	-788.57629	-1120.09607	962.78558	-810.46417	-900.70453	976.44324	-824.63513	-1081.99805	986.80542	-652.59064	-914.31207	998.34613	-669.4549	-1174.02087	643.63757	-771.93866	-1160.12952	482.48105	-798.16473	-1147.53223	324.20303	-610.76001	-1108.84656	208.98367	-484.13989	-1058.3855	225.55931	-451.28134	-1118.37659	78.07636	-548.15656	-842.1676	641.54413	-795.12976	-869.61816	517.49329	-808.79193	-877.26361	251.46591	-770.89044	-929.5863	67.23185	-762.1701	-977.09711	44.09774	-724.25903	-923.18024	34.54954	-914.79492	-1006.77521	1708.90063	-709.8913	NaN	NaN	NaN	NaN	NaN	NaN	NaN	NaN	NaN	NaN	NaN	NaN	NaN	NaN	NaN	NaN	NaN	NaN	NaN	NaN	NaN	NaN	NaN	NaN
164	1.63	-1055.84558	1666.51636	-822.91327	-925.53833	1652.83252	-809.24609	-1071.51404	1619.78088	-688.09326	-942.96637	1611.14746	-676.16187	-1009.9718	1455.36414	-675.28125	-1001.48529	1125.27136	-645.78943	-1011.30579	1379.50647	-786.68921	-1022.72955	1205.6123	-830.35376	-928.74847	1281.48267	-607.16199	-1171.79822	1411.4812	-726.83899	-1242.1875	1208.46289	-737.65863	-1254.67041	1096.2356	-747.0387	-1277.28088	957.62683	-806.31073	-1237.09973	866.43298	-898.396	-1271.64685	843.36646	-841.14471	-1275.57935	780.2132	-905.18719	-848.43829	1408.38745	-744.74298	-762.19318	1208.17322	-712.28687	-750.78265	1086.1145	-726.15259	-736.70093	967.87415	-750.04999	-774.73914	833.65845	-816.29297	-730.95874	830.64331	-765.96313	-733.08594	757.8656	-809.23267	-1118.76465	963.87628	-819.77277	-899.35052	976.80493	-832.69861	-1081.53308	987.58453	-661.64325	-913.69226	998.79535	-677.60583	-1173.61646	645.19067	-785.55096	-1159.50586	484.59235	-814.53461	-1147.17896	323.81213	-629.45026	-1108.71411	206.63777	-504.686	-1058.03455	222.14633	-471.15646	-1119.51855	78.3593	-572.62946	-841.9881	641.3006	-800.70313	-869.28082	517.15063	-813.12701	-877.56897	251.51094	-771.99164	-929.91821	67.39955	-762.21918	-976.7522	43.97027	-724.12634	-923.17401	34.42311	-914.78918	-1006.245	1709.45105	-719.53113	NaN	NaN	NaN	NaN	NaN	NaN	NaN	NaN	NaN	NaN	NaN	NaN	NaN	NaN	NaN	NaN	NaN	NaN	NaN	NaN	NaN	NaN	NaN	NaN
165	1.64	-1055.2594	1667.08398	-832.65466	-924.98352	1653.2843	-818.84583	-1071.11182	1620.32129	-697.86078	-942.56842	1611.62744	-685.7558	-1009.41058	1456.62512	-683.29926	-1000.41797	1125.95093	-654.6142	-1010.73413	1379.94006	-796.05536	-1021.92188	1205.99219	-839.33197	-927.36475	1282.83069	-616.40863	-1171.11707	1411.93518	-735.79187	-1240.92737	1208.59619	-744.72357	-1252.62085	1096.19141	-751.99664	-1275.33459	955.70099	-807.03882	-1235.64514	861.53009	-896.35455	-1269.8324	840.42731	-838.16602	-1274.31409	775.28076	-900.14716	-847.90228	1409.09985	-754.89911	-760.82477	1208.74182	-725.08075	-749.33423	1086.93469	-740.01593	-735.09149	969.22931	-766.19183	-773.06958	836.60516	-835.46875	-729.05273	832.55884	-785.05322	-731.52673	760.4881	-829.77722	-1117.10364	964.87445	-828.79291	-897.85748	976.94629	-840.52209	-1081.05505	988.32159	-670.51874	-913.05676	999.14063	-685.40979	-1173.09692	646.70404	-799.04358	-1158.82922	486.68188	-830.60461	-1147.04028	322.91501	-648.38763	-1108.75293	203.24211	-525.94702	-1057.96375	217.46605	-492.10837	-1120.23743	77.65212	-597.74561	-841.7959	641.12952	-805.96222	-868.86676	516.74005	-817.30798	-877.77448	251.58266	-773.24078	-930.20624	67.52039	-762.23828	-977.02435	44.06802	-724.12268	-923.13757	34.29072	-914.78351	-1005.77661	1709.95483	-729.24402	NaN	NaN	NaN	NaN	NaN	NaN	NaN	NaN	NaN	NaN	NaN	NaN	NaN	NaN	NaN	NaN	NaN	NaN	NaN	NaN	NaN	NaN	NaN	NaN
166	1.65	-1054.724	1667.48938	-842.3725	-924.42755	1653.70874	-828.43982	-1070.68689	1620.76196	-707.59625	-942.14325	1612.05298	-695.40118	-1008.67676	1456.96826	-693.26215	-999.44977	1126.69983	-663.2713	-1010.27606	1380.31958	-805.42609	-1021.08044	1206.26941	-848.242	-926.1239	1284.01331	-625.59589	-1170.51282	1412.3291	-744.80389	-1239.9967	1208.90564	-751.82343	-1250.71887	1096.19836	-756.94623	-1273.54175	954.11548	-807.53589	-1234.23083	856.92047	-894.08948	-1268.06689	837.89008	-834.95184	-1273.00903	770.66852	-894.76111	-847.37396	1409.66223	-764.9397	-760.05951	1209.33044	-736.91193	-747.94049	1087.75	-753.79596	-733.53876	970.65411	-782.37762	-771.67847	839.51007	-854.15979	-727.34186	834.4671	-804.24652	-729.84564	763.3913	-850.47137	-1115.94958	965.97571	-838.32098	-896.26697	977.25775	-848.73041	-1080.72754	989.04419	-679.57556	-912.58685	999.29346	-693.95239	-1172.78174	648.20721	-812.1983	-1158.05542	488.8248	-846.39709	-1146.69897	321.44061	-668.07898	-1108.92676	198.99089	-547.92993	-1058.10132	212.11746	-513.27155	-1120.91418	76.47646	-624.16241	-841.55743	640.97723	-811.1228	-868.41461	516.4826	-821.6217	-877.8219	251.66263	-774.66992	-930.41199	67.65845	-762.32343	-977.19543	44.16282	-724.10858	-923.12067	34.20205	-914.78186	-1005.33429	1710.41626	-738.94867	NaN	NaN	NaN	NaN	NaN	NaN	NaN	NaN	NaN	NaN	NaN	NaN	NaN	NaN	NaN	NaN	NaN	NaN	NaN	NaN	NaN	NaN	NaN	NaN
